<?xml version="1.0" encoding="UTF-8" standalone="no"?>
<!-- Created with Inkscape (http://www.inkscape.org/) -->

<svg
   width="67.308342"
   height="89.985504"
   viewBox="0 0 17.808665 23.808665"
   version="1.1"
   id="svg1"
   xmlns:xlink="http://www.w3.org/1999/xlink"
   xmlns="http://www.w3.org/2000/svg"
   xmlns:svg="http://www.w3.org/2000/svg">
  <defs
     id="defs1">
    <linearGradient
       id="swatch7">
      <stop
         style="stop-color:#dddddd;stop-opacity:1;"
         offset="0"
         id="stop7" />
    </linearGradient>
    <linearGradient
       id="swatch75">
      <stop
         style="stop-color:#000000;stop-opacity:1;"
         offset="0"
         id="stop75" />
    </linearGradient>
    <linearGradient
       xlink:href="#swatch7"
       id="linearGradient9"
       gradientUnits="userSpaceOnUse"
       gradientTransform="matrix(1.181911,0,0,1.1864332,-27.316191,14.568995)"
       x1="112.10938"
       y1="23.137836"
       x2="127.10938"
       y2="23.137836" />
    <linearGradient
       xlink:href="#swatch7"
       id="linearGradient10"
       gradientUnits="userSpaceOnUse"
       gradientTransform="matrix(1.181911,0,0,1.1864332,-9.507526,14.568998)"
       x1="112.10938"
       y1="23.137836"
       x2="127.10938"
       y2="23.137836" />
  </defs>
  <g
     id="layer1"
     transform="translate(-32.728665,-89.999998)">
    <path
       id="text23-0-9"
       style="font-size:8.46667px;line-height:1.25;font-family:'JetBrains Mono';-inkscape-font-specification:'JetBrains Mono, Normal';font-variant-ligatures:none;stroke-width:0.264583"
       d="m 47.340608,96.820385 c -0.0388,-0.0668 -0.0814,-0.12918 -0.12712,-0.18914 0.0457,0.0598 0.0883,0.12248 0.12712,0.18914 z m -0.1695,-0.23927 c -0.0278,-0.0337 -0.0547,-0.0684 -0.0847,-0.0997 l 0.61392,-0.61392 c -0.1756,-0.18081 -0.37928,-0.33346 -0.61082,-0.45837 -0.43462,-0.23706 -0.94256,-0.35553 -1.52394,-0.35553 h -0.25424 v 0.84646 h 0.25424 0.0424 c 0.40076,0 0.75039,0.0818 1.04955,0.24546 0.14782,0.0837 0.27903,0.18401 0.39377,0.30076 0.0428,0.0421 0.0815,0.0883 0.11988,0.13487 z" />
    <g
       id="g61-5-4-3-3"
       transform="matrix(1,0,0,-1,-80.731818,198.01469)">
      <path
         style="font-size:6.71745px;line-height:1.25;font-family:'JetBrains Mono';-inkscape-font-specification:'JetBrains Mono, Normal';font-variant-ligatures:none;stroke-width:0.20992"
         d="m -81.68916,158.86491 v -10.21052 h 0.671745 v 10.21052 z"
         id="text14-4-7-8-8"
         transform="matrix(0,-1.260401,0.79339827,0,0,0)"
         aria-label="│ " />
      <path
         id="path51-0-5-1-8"
         style="font-size:8.46667px;line-height:1.25;font-family:'JetBrains Mono';-inkscape-font-specification:'JetBrains Mono, Normal';font-variant-ligatures:none;stroke-width:0.264583"
         d="m 115.91235,101.19425 c 0.0388,0.0668 0.0814,0.12918 0.12712,0.18914 -0.0457,-0.0598 -0.0883,-0.12248 -0.12712,-0.18914 z m 0.1695,0.23927 c 0.0278,0.0337 0.0547,0.0684 0.0847,0.0997 l -0.61392,0.61392 c 0.1756,0.18081 0.37928,0.33346 0.61082,0.45837 0.43462,0.23706 0.94256,0.35553 1.52394,0.35553 h 0.25424 v -0.84646 h -0.25424 -0.0424 c -0.40076,0 -0.75039,-0.0818 -1.04955,-0.24546 -0.14782,-0.0837 -0.27903,-0.18401 -0.39377,-0.30076 -0.0428,-0.0421 -0.0815,-0.0883 -0.11989,-0.13487 z" />
    </g>
    <path
       id="rect7-5"
       style="fill:none;stroke:#dddddd;stroke-width:0.08"
       d="m 15.04,90.04 h 17.728664 v 23.72867 H 15.04 Z" />
    <rect
       style="fill:none;stroke:url(#linearGradient9);stroke-width:0.08;stroke-dasharray:none"
       id="rect9"
       width="17.728664"
       height="23.728664"
       x="32.768665"
       y="90.040001" />
    <rect
       style="fill:none;stroke:url(#linearGradient10);stroke-width:0.08;stroke-dasharray:none"
       id="rect9-5"
       width="17.728664"
       height="23.728664"
       x="50.577328"
       y="90.040001" />
    <path
       style="fill:none;fill-rule:evenodd;stroke:#000000;stroke-width:0.25;stroke-linecap:butt;stroke-linejoin:miter;stroke-dasharray:none;stroke-opacity:1"
       d="M 1.3433228,101.90433 H 206.34332"
       id="path17" />
    <path
       style="fill:none;fill-rule:evenodd;stroke:#000000;stroke-width:0.264583px;stroke-linecap:butt;stroke-linejoin:miter;stroke-opacity:1"
       d="M 41.632997,90.039998 V 113.76866"
       id="path19" />
  </g>
</svg>
