<?xml version="1.0" encoding="UTF-8" standalone="no"?>
<!-- Created with Inkscape (http://www.inkscape.org/) -->

<svg
   width="67.308334"
   height="89.985504"
   viewBox="0 0 17.808663 23.808665"
   version="1.1"
   id="svg1"
   xmlns:xlink="http://www.w3.org/1999/xlink"
   xmlns="http://www.w3.org/2000/svg"
   xmlns:svg="http://www.w3.org/2000/svg">
  <defs
     id="defs1">
    <linearGradient
       id="swatch7">
      <stop
         style="stop-color:#dddddd;stop-opacity:1;"
         offset="0"
         id="stop7" />
    </linearGradient>
    <linearGradient
       id="swatch75">
      <stop
         style="stop-color:#000000;stop-opacity:1;"
         offset="0"
         id="stop75" />
    </linearGradient>
    <linearGradient
       xlink:href="#swatch7"
       id="linearGradient9"
       gradientUnits="userSpaceOnUse"
       gradientTransform="matrix(1.181911,0,0,1.1864332,-27.316191,14.568995)"
       x1="112.10938"
       y1="23.137836"
       x2="127.10938"
       y2="23.137836" />
    <linearGradient
       xlink:href="#swatch7"
       id="linearGradient10"
       gradientUnits="userSpaceOnUse"
       gradientTransform="matrix(1.181911,0,0,1.1864332,-9.507526,14.568998)"
       x1="112.10938"
       y1="23.137836"
       x2="127.10938"
       y2="23.137836" />
  </defs>
  <g
     id="layer1"
     transform="translate(-50.537328,-89.999998)">
    <g
       id="g64"
       transform="translate(-4.498541,57.935231)">
      <path
         id="path61-0"
         style="font-size:8.46667px;line-height:1.25;font-family:'JetBrains Mono';-inkscape-font-specification:'JetBrains Mono, Normal';font-variant-ligatures:none;stroke-width:0.264583"
         d="m 69.023042,49.996615 c 0.0668,-0.0388 0.12918,-0.0814 0.18914,-0.12712 -0.0598,0.0457 -0.12248,0.0883 -0.18914,0.12712 z m 0.23927,-0.1695 c 0.0337,-0.0278 0.0684,-0.0547 0.0997,-0.0847 l 0.61392,0.61392 c 0.18081,-0.1756 0.33346,-0.37928 0.45837,-0.61082 0.23706,-0.43462 0.35553,-0.94256 0.35553,-1.52394 v -0.25424 h -0.84646 v 0.25424 0.0424 c 0,0.40076 -0.0818,0.75039 -0.24546,1.04955 -0.0837,0.14782 -0.18401,0.27903 -0.30076,0.39377 -0.0421,0.0428 -0.0883,0.0815 -0.13487,0.11989 z" />
      <path
         style="font-size:6.59698px;line-height:1.25;font-family:'JetBrains Mono';-inkscape-font-specification:'JetBrains Mono, Normal';font-variant-ligatures:none;stroke-width:0.206155"
         d="M 54.496009,61.56209 V 51.53468 h 0.659698 v 10.02741 z"
         id="text63-9-0"
         transform="scale(1.2834169,0.77917004)"
         aria-label="│ " />
      <path
         d="m 69.947181,44.053778 v -4.064001 q 0,-0.618067 -0.245534,-1.075267 -0.245533,-0.4572 -0.694267,-0.702734 -0.440267,-0.254 -1.049867,-0.254 H 67.66118 v -0.846667 h 0.296333 q 0.8636,0 1.498601,0.3556 0.635,0.3556 0.982133,1.007534 0.355601,0.643467 0.355601,1.515534 v 4.064001 z"
         id="text21-3-8-8-1"
         style="font-size:8.46667px;line-height:1.25;font-family:'JetBrains Mono';-inkscape-font-specification:'JetBrains Mono, Normal';font-variant-ligatures:none;stroke-width:0.264583"
         aria-label="╮" />
      <path
         d="M -40.250827,70.793847 V 69.94718 h 0.296334 q 0.6096,0 1.049867,-0.245533 0.448733,-0.254 0.694267,-0.711201 0.245533,-0.4572 0.245533,-1.075267 v -3.894668 h 0.846667 v 3.894668 q 0,0.872067 -0.3556,1.524001 -0.347133,0.643467 -0.982134,0.999067 -0.635,0.3556 -1.4986,0.3556 z"
         id="text24-7-9-6-3-5"
         style="font-size:8.46667px;line-height:1.25;font-family:'JetBrains Mono';-inkscape-font-specification:'JetBrains Mono, Normal';font-variant-ligatures:none;stroke-width:0.264583"
         transform="rotate(-90)"
         aria-label="╯" />
      <g
         id="g61-5-4-3-2"
         transform="matrix(1,0,0,-1,-57.732853,140.0722)">
        <path
           style="font-size:6.71745px;line-height:1.25;font-family:'JetBrains Mono';-inkscape-font-specification:'JetBrains Mono, Normal';font-variant-ligatures:none;stroke-width:0.20992"
           d="m -81.68916,158.86491 v -10.21052 h 0.671745 v 10.21052 z"
           id="text14-4-7-8-5"
           transform="matrix(0,-1.260401,0.79339827,0,0,0)"
           aria-label="│ " />
        <path
           id="path51-0-5-1-86"
           style="font-size:8.46667px;line-height:1.25;font-family:'JetBrains Mono';-inkscape-font-specification:'JetBrains Mono, Normal';font-variant-ligatures:none;stroke-width:0.264583"
           d="m 115.91235,101.19425 c 0.0388,0.0668 0.0814,0.12918 0.12712,0.18914 -0.0457,-0.0598 -0.0883,-0.12248 -0.12712,-0.18914 z m 0.1695,0.23927 c 0.0278,0.0337 0.0547,0.0684 0.0847,0.0997 l -0.61392,0.61392 c 0.1756,0.18081 0.37928,0.33346 0.61082,0.45837 0.43462,0.23706 0.94256,0.35553 1.52394,0.35553 h 0.25424 v -0.84646 h -0.25424 -0.0424 c -0.40076,0 -0.75039,-0.0818 -1.04955,-0.24546 -0.14782,-0.0837 -0.27903,-0.18401 -0.39377,-0.30076 -0.0428,-0.0421 -0.0815,-0.0883 -0.11989,-0.13487 z" />
      </g>
    </g>
    <rect
       style="fill:none;stroke:url(#linearGradient9);stroke-width:0.08;stroke-dasharray:none"
       id="rect9"
       width="17.728664"
       height="23.728664"
       x="32.768665"
       y="90.040001" />
    <rect
       style="fill:none;stroke:url(#linearGradient10);stroke-width:0.08;stroke-dasharray:none"
       id="rect9-5"
       width="17.728664"
       height="23.728664"
       x="50.577328"
       y="90.040001" />
    <path
       style="fill:none;fill-rule:evenodd;stroke:#000000;stroke-width:0.25;stroke-linecap:butt;stroke-linejoin:miter;stroke-dasharray:none;stroke-opacity:1"
       d="M 1.3433228,101.90433 H 206.34332"
       id="path17" />
    <path
       style="fill:none;fill-rule:evenodd;stroke:#000000;stroke-width:0.264583px;stroke-linecap:butt;stroke-linejoin:miter;stroke-opacity:1"
       d="M 59.441659,90.039998 V 113.76866"
       id="path20" />
  </g>
</svg>
